<?xml version="1.0" encoding="UTF-8" standalone="no"?><!-- Generator: Gravit.io --><svg xmlns="http://www.w3.org/2000/svg" xmlns:xlink="http://www.w3.org/1999/xlink" style="isolation:isolate" viewBox="0 0 512 512" width="512pt" height="512pt"><defs><clipPath id="_clipPath_vhDm18Wmxm2fehGEEXkTkR5bBdlNiBpn"><rect width="512" height="512"/></clipPath></defs><g clip-path="url(#_clipPath_vhDm18Wmxm2fehGEEXkTkR5bBdlNiBpn)"><rect width="512" height="512" style="fill:rgb(0,0,0)" fill-opacity="0"/><g><g style="mix-blend-mode:multiply;"><path d=" M 32 239.375 C 107.833 239.375 140.5 175.208 256 175.208 C 371.5 175.208 404.167 239.375 480 239.375 M 32 239.375 C 107.833 239.375 140.5 303.542 256 303.542 C 371.5 303.542 404.167 239.375 480 239.375" fill-rule="evenodd" fill="rgb(85,230,191)"/></g><g style="mix-blend-mode:multiply;"><path d=" M 32 239.375 C 107.833 239.375 140.5 175.208 256 175.208 C 371.5 175.208 404.167 239.375 480 239.375 M 32 239.375 C 100.396 239.375 159.944 272.771 256 272.771 C 360.222 272.771 416.222 239.375 480 239.375" fill-rule="evenodd" fill="rgb(137,187,212)"/></g><g style="mix-blend-mode:multiply;"><circle vector-effect="non-scaling-stroke" cx="255.70833333333331" cy="298.58333333333326" r="38.208333333333314" fill="rgb(152,96,221)"/></g><g style="mix-blend-mode:multiply;"><line x1="256" y1="247.542" x2="256" y2="222.823" vector-effect="non-scaling-stroke" stroke-width="4" stroke="rgb(152,96,221)" stroke-linejoin="miter" stroke-linecap="round" stroke-miterlimit="3"/></g><g style="mix-blend-mode:multiply;"><line x1="274.667" y1="251.042" x2="274.667" y2="232.083" vector-effect="non-scaling-stroke" stroke-width="4" stroke="rgb(152,96,221)" stroke-linejoin="miter" stroke-linecap="round" stroke-miterlimit="3"/></g><g style="mix-blend-mode:multiply;"><line x1="237.333" y1="251.042" x2="237.333" y2="232.083" vector-effect="non-scaling-stroke" stroke-width="4" stroke="rgb(152,96,221)" stroke-linejoin="miter" stroke-linecap="round" stroke-miterlimit="3"/></g></g></g></svg>